<?xml version="1.0" encoding="UTF-8" standalone="no"?>
<svg
   width="97pt"
   height="25pt"
   version="1.1"
   viewBox="0 0 775 200"
   id="svg130"
   sodipodi:docname="Logo_complet_HTML_noir.svg"
   inkscape:version="1.2 (dc2aedaf03, 2022-05-15)"
   xmlns:inkscape="http://www.inkscape.org/namespaces/inkscape"
   xmlns:sodipodi="http://sodipodi.sourceforge.net/DTD/sodipodi-0.dtd"
   xmlns:xlink="http://www.w3.org/1999/xlink"
   xmlns="http://www.w3.org/2000/svg"
   xmlns:svg="http://www.w3.org/2000/svg">
  <sodipodi:namedview
     id="namedview132"
     pagecolor="#ffffff"
     bordercolor="#000000"
     borderopacity="0.25"
     inkscape:showpageshadow="2"
     inkscape:pageopacity="0.0"
     inkscape:pagecheckerboard="0"
     inkscape:deskcolor="#d1d1d1"
     inkscape:document-units="pt"
     showgrid="false"
     inkscape:zoom="0.72214286"
     inkscape:cx="517.90306"
     inkscape:cy="357.27003"
     inkscape:window-width="1600"
     inkscape:window-height="829"
     inkscape:window-x="1912"
     inkscape:window-y="-8"
     inkscape:window-maximized="1"
     inkscape:current-layer="text1024" />
  <defs
     id="defs62">
    <rect
       x="796.24133"
       y="91.394661"
       width="332.34421"
       height="232.64095"
       id="rect10355" />
    <rect
       x="689.61426"
       y="52.621166"
       width="78.931747"
       height="234.02571"
       id="rect10349" />
    <rect
       x="510.97922"
       y="47.082096"
       width="418.1998"
       height="242.33432"
       id="rect10343" />
    <rect
       x="404.35214"
       y="24.925816"
       width="88.625122"
       height="238.18001"
       id="rect9299" />
    <linearGradient
       id="linearGradient6259"
       inkscape:swatch="solid">
      <stop
         style="stop-color:#000000;stop-opacity:1;"
         offset="0"
         id="stop6257" />
    </linearGradient>
    <rect
       x="361.42432"
       y="581.60236"
       width="200.79131"
       height="163.40257"
       id="rect1082" />
    <rect
       x="225.71712"
       y="438.97131"
       width="281.10782"
       height="285.26212"
       id="rect1026" />
    <symbol
       id="t"
       overflow="visible">
      <path
         d="m 18.766,-1.125 c -0.96875,0.5 -1.9805,0.875 -3.0312,1.125 -1.043,0.25781 -2.1367,0.39062 -3.2812,0.39062 -3.3984,0 -6.0898,-0.94531 -8.0781,-2.8438 -1.9922,-1.9062 -2.9844,-4.4844 -2.9844,-7.7344 0,-3.2578 0.99219,-5.8359 2.9844,-7.7344 1.9883,-1.9062 4.6797,-2.8594 8.0781,-2.8594 1.1445,0 2.2383,0.13281 3.2812,0.39062 1.0508,0.25 2.0625,0.625 3.0312,1.125 v 4.2188 c -0.98047,-0.65625 -1.9453,-1.1406 -2.8906,-1.4531 -0.94922,-0.3125 -1.9492,-0.46875 -3,-0.46875 -1.875,0 -3.3516,0.60547 -4.4219,1.8125 -1.0742,1.1992 -1.6094,2.8555 -1.6094,4.9688 0,2.1055 0.53516,3.7617 1.6094,4.9688 1.0703,1.1992 2.5469,1.7969 4.4219,1.7969 1.0508,0 2.0508,-0.14844 3,-0.45312 0.94531,-0.3125 1.9102,-0.80078 2.8906,-1.4688 z"
         id="path2" />
    </symbol>
    <symbol
       id="c"
       overflow="visible">
      <path
         d="m 13.734,-11.141 c -0.4375,-0.19531 -0.87109,-0.34375 -1.2969,-0.4375 -0.41797,-0.10156 -0.83984,-0.15625 -1.2656,-0.15625 -1.2617,0 -2.2305,0.40625 -2.9062,1.2188 -0.67969,0.80469 -1.0156,1.9531 -1.0156,3.4531 v 7.0625 H 2.3591 v -15.312 h 4.8906 v 2.5156 c 0.625,-1 1.3438,-1.7266 2.1562,-2.1875 0.82031,-0.46875 1.8008,-0.70312 2.9375,-0.70312 0.16406,0 0.34375,0.01172 0.53125,0.03125 0.19531,0.01172 0.47656,0.03906 0.84375,0.07813 z"
         id="path5" />
    </symbol>
    <symbol
       id="a"
       overflow="visible">
      <path
         d="m 17.641,-7.7031 v 1.4062 H 6.188 c 0.125,1.1484 0.53906,2.0078 1.25,2.5781 0.70703,0.57422 1.7031,0.85938 2.9844,0.85938 1.0312,0 2.082,-0.14844 3.1562,-0.45312 1.082,-0.3125 2.1914,-0.77344 3.3281,-1.3906 v 3.7656 c -1.1562,0.4375 -2.3125,0.76562 -3.4688,0.98438 -1.1562,0.22656 -2.3125,0.34375 -3.4688,0.34375 -2.7734,0 -4.9297,-0.70312 -6.4688,-2.1094 -1.5312,-1.4062 -2.2969,-3.3789 -2.2969,-5.9219 0,-2.5 0.75391,-4.4609 2.2656,-5.8906 1.5078,-1.4375 3.582,-2.1562 6.2188,-2.1562 2.4062,0 4.332,0.73047 5.7812,2.1875 1.4453,1.4492 2.1719,3.3828 2.1719,5.7969 z m -5.0312,-1.625 c 0,-0.92578 -0.27344,-1.6719 -0.8125,-2.2344 -0.54297,-0.57031 -1.25,-0.85938 -2.125,-0.85938 -0.94922,0 -1.7188,0.26562 -2.3125,0.79688 -0.5937,0.53126 -0.96484,1.2969 -1.1094,2.2969 z"
         id="path8" />
    </symbol>
    <symbol
       id="f"
       overflow="visible">
      <path
         d="m 9.2188,-6.8906 c -1.0234,0 -1.793,0.17188 -2.3125,0.51562 -0.51172,0.34375 -0.76562,0.85547 -0.76562,1.5312 0,0.625 0.20703,1.1172 0.625,1.4688 0.41406,0.34375 0.98828,0.51562 1.7188,0.51562 0.92578,0 1.7031,-0.32812 2.3281,-0.98438 0.63281,-0.66406 0.95312,-1.4922 0.95312,-2.4844 v -0.5625 z m 7.4688,-1.8438 V 0 h -4.9219 v -2.2656 c -0.65625,0.92969 -1.3984,1.6055 -2.2188,2.0312 -0.82422,0.41406 -1.8242,0.625 -3,0.625 -1.5859,0 -2.8711,-0.45703 -3.8594,-1.375 -0.99219,-0.92578 -1.4844,-2.1289 -1.4844,-3.6094 0,-1.7891 0.61328,-3.1016 1.8438,-3.9375 1.2383,-0.84375 3.1797,-1.2656 5.8281,-1.2656 h 2.8906 v -0.39062 c 0,-0.76953 -0.30859,-1.332 -0.92188,-1.6875 -0.61719,-0.36328 -1.5703,-0.54688 -2.8594,-0.54688 -1.0547,0 -2.0312,0.10547 -2.9375,0.3125 -0.89844,0.21094 -1.7305,0.52344 -2.5,0.9375 v -3.7344 c 1.0391,-0.25 2.0859,-0.44141 3.1406,-0.57812 1.0625,-0.13281 2.125,-0.20312 3.1875,-0.20312 2.7578,0 4.75,0.54688 5.9688,1.6406 1.2266,1.0859 1.8438,2.8555 1.8438,5.3125 z"
         id="path11" />
    </symbol>
    <symbol
       id="b"
       overflow="visible">
      <path
         d="m 7.7031,-19.656 v 4.3438 H 12.75 v 3.5 H 7.7031 v 6.5 c 0,0.71094 0.14062,1.1875 0.42188,1.4375 0.28126,0.25 0.83594,0.375 1.6719,0.375 h 2.5156 v 3.5 h -4.1875 c -1.9375,0 -3.3125,-0.39844 -4.125,-1.2031 -0.80469,-0.8125 -1.2031,-2.1797 -1.2031,-4.1094 v -6.5 h -2.4219 v -3.5 h 2.4219 v -4.3438 z"
         id="path14" />
    </symbol>
    <symbol
       id="e"
       overflow="visible">
      <path
         d="m 12.766,-13.078 v -8.2031 h 4.9219 V -1e-4 H 12.766 v -2.2188 c -0.66797,0.90625 -1.4062,1.5703 -2.2188,1.9844 -0.8126,0.4141 -1.7578,0.625 -2.8281,0.625 -1.8867,0 -3.4336,-0.75 -4.6406,-2.25 -1.2109,-1.5 -1.8125,-3.4258 -1.8125,-5.7812 0,-2.3633 0.60156,-4.2969 1.8125,-5.7969 1.207,-1.5 2.7539,-2.25 4.6406,-2.25 1.0625,0 2,0.21484 2.8125,0.64062 0.82031,0.42969 1.5664,1.0859 2.2344,1.9688 z m -3.2188,9.9219 c 1.0391,0 1.8359,-0.37891 2.3906,-1.1406 0.55078,-0.76953 0.82812,-1.8828 0.82812,-3.3438 0,-1.457 -0.27734,-2.5664 -0.82812,-3.3281 -0.55469,-0.76953 -1.3516,-1.1562 -2.3906,-1.1562 -1.043,0 -1.8398,0.38672 -2.3906,1.1562 -0.55469,0.76172 -0.82812,1.8711 -0.82812,3.3281 0,1.4609 0.27344,2.5742 0.82812,3.3438 0.55078,0.76172 1.3477,1.1406 2.3906,1.1406 z"
         id="path17" />
    </symbol>
    <symbol
       id="i"
       overflow="visible">
      <path
         d="m 10.5,-3.1562 c 1.0508,0 1.8516,-0.37891 2.4062,-1.1406 0.55078,-0.76953 0.82812,-1.8828 0.82812,-3.3438 0,-1.457 -0.27734,-2.5664 -0.82812,-3.3281 -0.55469,-0.76953 -1.3555,-1.1562 -2.4062,-1.1562 -1.0547,0 -1.8594,0.38672 -2.4219,1.1562 -0.55469,0.77344 -0.82812,1.8828 -0.82812,3.3281 0,1.4492 0.27344,2.5586 0.82812,3.3281 0.5625,0.77344 1.3672,1.1562 2.4219,1.1562 z m -3.25,-9.9219 c 0.67578,-0.88281 1.4219,-1.5391 2.2344,-1.9688 0.82031,-0.42578 1.7656,-0.64062 2.8281,-0.64062 1.8945,0 3.4453,0.75 4.6562,2.25 1.207,1.5 1.8125,3.4336 1.8125,5.7969 0,2.3555 -0.60547,4.2812 -1.8125,5.7812 -1.2109,1.5 -2.7617,2.25 -4.6562,2.25 -1.0625,0 -2.0078,-0.21094 -2.8281,-0.625 C 8.6719,-0.6602 7.9258,-1.32032 7.25,-2.21882 V -2e-5 H 2.3594 v -21.281 H 7.25 Z"
         id="path20" />
    </symbol>
    <symbol
       id="h"
       overflow="visible">
      <path
         d="m 0.34375,-15.312 h 4.8906 l 4.125,10.391 3.5,-10.391 h 4.8906 l -6.4375,16.766 c -0.64844,1.6953 -1.4023,2.8828 -2.2656,3.5625 -0.86719,0.6875 -2,1.0312 -3.4062,1.0312 H 2.79685 V 2.8289 h 1.5312 c 0.83203,0 1.4375,-0.13672 1.8125,-0.40625 C 6.52336,2.16093 6.82024,1.69218 7.03117,1.01645 L 7.17179,0.59457 Z"
         id="path23" />
    </symbol>
    <symbol
       id="g"
       overflow="visible">
      <path
         d="m 2.5781,-20.406 h 5.25 v 7.7656 h 7.7656 v -7.7656 h 5.2656 V 0 H 15.5937 V -8.6562 H 7.8281 V 0 h -5.25 z"
         id="path26" />
    </symbol>
    <symbol
       id="s"
       overflow="visible">
      <path
         d="M 2.3594,-15.312 H 7.25 V 0 H 2.3594 Z m 0,-5.9688 H 7.25 v 4 H 2.3594 Z"
         id="path29" />
    </symbol>
    <symbol
       id="r"
       overflow="visible">
      <path
         d="m 12.422,-21.281 v 3.2188 H 9.7189 c -0.6875,0 -1.1719,0.125 -1.4531,0.375 -0.27344,0.25 -0.40625,0.6875 -0.40625,1.3125 v 1.0625 h 4.1875 v 3.5 H 7.85955 V -2e-4 h -4.8906 v -11.812 h -2.4375 v -3.5 h 2.4375 v -1.0625 c 0,-1.6641 0.46094,-2.8984 1.3906,-3.7031 0.92578,-0.80078 2.3672,-1.2031 4.3281,-1.2031 z"
         id="path32" />
    </symbol>
    <symbol
       id="d"
       overflow="visible">
      <path
         d="m 9.6406,-12.188 c -1.0859,0 -1.9141,0.39062 -2.4844,1.1719 -0.57422,0.78125 -0.85938,1.9062 -0.85938,3.375 0,1.4688 0.28516,2.5938 0.85938,3.375 0.57031,0.77344 1.3984,1.1562 2.4844,1.1562 1.0625,0 1.875,-0.38281 2.4375,-1.1562 0.57031,-0.78125 0.85938,-1.9062 0.85938,-3.375 0,-1.4688 -0.28906,-2.5938 -0.85938,-3.375 -0.5625,-0.78125 -1.375,-1.1719 -2.4375,-1.1719 z m 0,-3.5 c 2.6328,0 4.6914,0.71484 6.1719,2.1406 1.4766,1.418 2.2188,3.3867 2.2188,5.9062 0,2.5117 -0.74219,4.4805 -2.2188,5.9062 C 14.332,-0.317 12.2734,0.39 9.6406,0.39 6.9922,0.39 4.9258,-0.31703 3.4375,-1.735 1.9453,-3.1608 1.2031,-5.1295 1.2031,-7.6412 c 0,-2.5195 0.74219,-4.4883 2.2344,-5.9062 1.4883,-1.4258 3.5547,-2.1406 6.2031,-2.1406 z"
         id="path35" />
    </symbol>
    <symbol
       id="q"
       overflow="visible">
      <path
         d="m 16.547,-12.766 c 0.61328,-0.94531 1.3477,-1.6719 2.2031,-2.1719 0.85156,-0.5 1.7891,-0.75 2.8125,-0.75 1.7578,0 3.0977,0.54688 4.0156,1.6406 0.92578,1.0859 1.3906,2.6562 1.3906,4.7188 V -4e-4 h -4.9219 v -7.9844 -0.35938 c 0.0078,-0.13281 0.01563,-0.32031 0.01563,-0.5625 0,-1.082 -0.16406,-1.8633 -0.48438,-2.3438 -0.3125,-0.48828 -0.82422,-0.73438 -1.5312,-0.73438 -0.92969,0 -1.6484,0.38672 -2.1562,1.1562 -0.51172,0.76172 -0.77344,1.8672 -0.78125,3.3125 v 7.5156 h -4.9219 v -7.9844 c 0,-1.6953 -0.14844,-2.7852 -0.4375,-3.2656 -0.29297,-0.48828 -0.8125,-0.73438 -1.5625,-0.73438 -0.9375,0 -1.6641,0.38672 -2.1719,1.1562 -0.51172,0.76172 -0.76562,1.8594 -0.76562,3.2969 v 7.5312 h -4.9219 v -15.312 h 4.9219 v 2.2344 c 0.60156,-0.86328 1.2891,-1.5156 2.0625,-1.9531 0.78125,-0.4375 1.6406,-0.65625 2.5781,-0.65625 1.0625,0 2,0.25781 2.8125,0.76562 0.8125,0.51172 1.4258,1.2305 1.8438,2.1562 z"
         id="path38" />
    </symbol>
    <symbol
       id="p"
       overflow="visible">
      <path
         d="M 17.75,-9.3281 V 0 h -4.9219 v -7.1094 c 0,-1.3438 -0.03125,-2.2656 -0.09375,-2.7656 -0.0625,-0.5 -0.16797,-0.86719 -0.3125,-1.1094 -0.1875,-0.3125 -0.44922,-0.55469 -0.78125,-0.73438 -0.32422,-0.17578 -0.69531,-0.26562 -1.1094,-0.26562 -1.0234,0 -1.8242,0.39844 -2.4062,1.1875 -0.58594,0.78125 -0.875,1.8711 -0.875,3.2656 V -1e-4 H 2.3594 v -21.281 H 7.25 v 8.2031 c 0.73828,-0.88281 1.5195,-1.5391 2.3438,-1.9688 0.83203,-0.42578 1.75,-0.64062 2.75,-0.64062 1.7695,0 3.1133,0.54688 4.0312,1.6406 0.91406,1.0859 1.375,2.6562 1.375,4.7188 z"
         id="path41" />
    </symbol>
    <symbol
       id="o"
       overflow="visible">
      <path
         d="m 2.5781,-20.406 h 5.875 l 7.4219,14 v -14 h 4.9844 V 0 h -5.875 L 7.5625,-14 V 0 H 2.5781 Z"
         id="path44" />
    </symbol>
    <symbol
       id="n"
       overflow="visible">
      <path
         d="m 2.1875,-5.9688 v -9.3438 h 4.9219 v 1.5312 c 0,0.83594 -0.00781,1.875 -0.015625,3.125 -0.011719,1.25 -0.015625,2.0859 -0.015625,2.5 0,1.2422 0.03125,2.1328 0.09375,2.6719 0.070313,0.54297 0.17969,0.93359 0.32812,1.1719 0.20703,0.32422 0.47266,0.57422 0.79688,0.75 0.32031,0.16797 0.69141,0.25 1.1094,0.25 1.0195,0 1.8203,-0.39062 2.4062,-1.1719 0.58203,-0.78125 0.875,-1.8672 0.875,-3.2656 v -7.5625 h 4.8906 V -6e-4 H 12.6875 V -2.2194 C 11.94531,-1.32096 11.1641,-0.6608 10.3437,-0.235 9.51948,0.17906 8.6093,0.39 7.6093,0.39 5.8476,0.39 4.5038,-0.14906 3.5781,-1.235 2.64841,-2.317 2.1875,-3.8952 2.1875,-5.9694 Z"
         id="path47" />
    </symbol>
    <symbol
       id="m"
       overflow="visible">
      <path
         d="M 17.75,-9.3281 V 0 h -4.9219 v -7.1406 c 0,-1.3203 -0.03125,-2.2344 -0.09375,-2.7344 -0.0625,-0.5 -0.16797,-0.86719 -0.3125,-1.1094 -0.1875,-0.3125 -0.44922,-0.55469 -0.78125,-0.73438 -0.32422,-0.17578 -0.69531,-0.26562 -1.1094,-0.26562 -1.0234,0 -1.8242,0.39844 -2.4062,1.1875 -0.58594,0.78125 -0.875,1.8711 -0.875,3.2656 V -1e-4 H 2.3594 v -15.312 H 7.25 v 2.2344 c 0.73828,-0.88281 1.5195,-1.5391 2.3438,-1.9688 0.83203,-0.42578 1.75,-0.64062 2.75,-0.64062 1.7695,0 3.1133,0.54688 4.0312,1.6406 0.91406,1.0859 1.375,2.6562 1.375,4.7188 z"
         id="path50" />
    </symbol>
    <symbol
       id="l"
       overflow="visible">
      <path
         d="m 2.5781,-20.406 h 8.7344 c 2.5938,0 4.582,0.57812 5.9688,1.7344 1.3945,1.1484 2.0938,2.7891 2.0938,4.9219 0,2.1367 -0.69922,3.7812 -2.0938,4.9375 -1.3867,1.1562 -3.375,1.7344 -5.9688,1.7344 H 7.8281 V 3e-4 h -5.25 z m 5.25,3.8125 v 5.7031 H 10.75 c 1.0195,0 1.8047,-0.25 2.3594,-0.75 0.5625,-0.5 0.84375,-1.2031 0.84375,-2.1094 0,-0.91406 -0.28125,-1.6172 -0.84375,-2.1094 -0.55469,-0.48828 -1.3398,-0.73438 -2.3594,-0.73438 z"
         id="path53" />
    </symbol>
    <symbol
       id="k"
       overflow="visible">
      <path
         d="M 2.3594,-15.312 H 7.25 v 15.031 c 0,2.0508 -0.49609,3.6172 -1.4844,4.7031 -0.98047,1.082 -2.4062,1.625 -4.2812,1.625 H -0.9375 V 2.8283 h 0.85938 c 0.92578,0 1.5625,-0.21094 1.9062,-0.625 0.35156,-0.41797 0.53125,-1.2461 0.53125,-2.4844 z m 0,-5.9688 H 7.25 v 4 H 2.3594 Z"
         id="path56" />
    </symbol>
    <symbol
       id="j"
       overflow="visible">
      <path
         d="m 14.719,-14.828 v 3.9844 c -0.65625,-0.45703 -1.3242,-0.79688 -2,-1.0156 -0.66797,-0.21875 -1.3594,-0.32812 -2.0781,-0.32812 -1.3672,0 -2.4336,0.40234 -3.2031,1.2031 -0.76172,0.79297 -1.1406,1.9062 -1.1406,3.3438 0,1.4297 0.37891,2.543 1.1406,3.3438 0.76953,0.79297 1.8359,1.1875 3.2031,1.1875 0.75781,0 1.4844,-0.10938 2.1719,-0.32812 0.6875,-0.22656 1.3203,-0.56641 1.9062,-1.0156 v 4 c -0.76172,0.28125 -1.5391,0.48828 -2.3281,0.625 -0.78125,0.14453 -1.5742,0.21875 -2.375,0.21875 -2.7617,0 -4.9219,-0.70703 -6.4844,-2.125 -1.5547,-1.4141 -2.3281,-3.3828 -2.3281,-5.9062 0,-2.5312 0.77344,-4.5039 2.3281,-5.9219 1.5625,-1.4141 3.7227,-2.125 6.4844,-2.125 0.80078,0 1.5938,0.07422 2.375,0.21875 0.78125,0.13672 1.5547,0.35156 2.3281,0.64062 z"
         id="path59" />
    </symbol>
    <linearGradient
       inkscape:collect="always"
       xlink:href="#linearGradient6259"
       id="linearGradient6261"
       x1="232.5128"
       y1="548.33411"
       x2="385.38474"
       y2="548.33411"
       gradientUnits="userSpaceOnUse" />
  </defs>
  <g
     id="g128">
    <path
       d="m 236.68446,40.654865 c -2.52405,0 -4.57421,-2.05019 -4.57421,-4.57422 0,-2.54058 2.05018,-4.57422 4.57421,-4.57422 h 1.94858 c 10.89269,0 19.8203,3.43861 26.08765,9.82545 6.04774,6.14937 9.47,14.89033 9.60583,25.74975 0.47385,1.28802 1.38966,2.33736 2.52406,2.98136 1.25375,0.7279 2.81239,0.98198 4.35339,0.57546 2.42242,-0.66055 4.92997,0.79645 5.59034,3.21898 0.64401,2.43897 -0.79644,4.94661 -3.23532,5.59035 -3.16816,0.84726 -6.38684,0.60974 -9.23253,-0.50812 v 5.92975 c 3.99764,0.64401 7.11498,2.20262 9.50298,4.5234 3.25316,3.15032 4.86129,7.48827 5.21704,12.705325 l 0.0165,11.6892 c 0,2.52406 -2.05018,4.57421 -4.57422,4.57421 -2.52404,0 -4.57422,-2.05018 -4.57422,-4.57421 v -11.3156 c -0.21979,-2.879735 -0.99969,-5.133265 -2.43897,-6.539315 -1.50781,-1.47354 -3.99764,-2.26998 -7.72453,-2.26998 -2.52406,0 -4.57422,-2.0502 -4.57422,-4.57422 v -21.32801 c 0,-8.69013 -2.48979,-15.48355 -6.96251,-20.03992 -4.50585,-4.59085 -11.21396,-7.06416 -19.58253,-7.06416 h -1.94858 z m -4.55636,116.108485 -11.02853,13.53479 h 25.34319 v -17.71907 z m -16.90625,13.53479 9.19805,-11.29926 -21.10808,6.16601 v 5.13325 z m 40.36965,-39.84328 h 5.23489 c 1.69453,-0.15244 2.98137,-0.57546 3.74353,-1.33884 0.77872,-0.82953 1.2372,-2.30426 1.2372,-4.57422 v -14.99197 c 0,-2.52406 2.05018,-4.57422 4.57421,-4.57422 2.50752,0 4.57422,2.05019 4.57422,4.57422 v 14.99197 c 0,4.81048 -1.37193,8.38522 -3.86301,10.92689 -2.40588,2.48978 -5.67566,3.76138 -9.57165,4.08264 l -0.62628,0.0508 h -5.30206 v 39.84328 h -61.42417 v -18.73672 h -7.82617 c -6.25103,0 -11.92667,-2.5914 -16.06014,-6.72475 -4.16765,-4.15009 -6.74259,-9.87627 -6.74259,-16.07676 v -8.11446 c -1.94857,-0.15244 -3.84518,-0.77872 -5.52318,-1.79615 -1.89776,-1.11785 -3.52361,-2.72728 -4.65802,-4.65801 -1.16868,-1.96512 -1.84696,-4.25174 -1.84696,-6.72475 0,-2.40587 0.66056,-4.98078 2.18492,-7.55573 l 9.84209,-16.499675 c 0.11817,-5.75945 0.94888,-11.33345 2.45669,-16.56834 1.5421,-5.38737 3.81221,-10.43531 6.7426,-14.97535 v -7.99648 c 0,-8.65686 2.79465,-14.92452 7.13131,-19.24463 4.96295,-4.9466 11.80718,-7.11498 18.66805,-7.26714 3.04867,-2.60913 6.9967,-3.93018 11.67256,-4.25175 l 17.78776,-0.0165 c 2.52406,0 4.57421,2.05018 4.57421,4.57422 0,2.52403 -2.05019,4.57422 -4.57421,4.57422 h -17.41416 c -2.87972,0.21978 -5.13325,0.99969 -6.53931,2.43896 -1.457,1.50782 -2.26999,3.99764 -2.26999,7.72454 0,2.52406 -2.05018,4.57422 -4.57422,4.57422 -2.52403,0 -4.57421,-2.05019 -4.57421,-4.57422 0,-1.84697 0.15243,-3.54026 0.44075,-5.09877 -2.57485,0.72789 -4.92997,1.96512 -6.75923,3.79435 -2.69302,2.6765 -4.42175,6.81005 -4.42175,12.77278 v 9.14723 c 0,0.84726 -0.23752,1.62598 -0.62628,2.30426 -0.11817,0.30487 -0.27061,0.59319 -0.45731,0.86381 -2.60912,3.91385 -4.64167,8.35193 -6.01355,13.14608 -1.38966,4.81047 -2.101,9.96157 -2.101,15.33109 v 1.23719 L 161.5239,113.75041 c -0.60973,1.01625 -0.86381,1.9994 -0.86381,2.86317 0,0.77872 0.20325,1.49128 0.55894,2.08329 0.35569,0.60973 0.88036,1.13558 1.47355,1.47354 0.5424,0.33914 1.16868,0.52467 1.79614,0.52467 h 8.19947 v 17.21117 c 0,3.67607 1.55861,7.11498 4.04846,9.62247 2.47324,2.47324 5.86108,4.03182 9.60583,4.03182 h 16.97461 v 4.09928 l 43.12851,-12.56949 v -18.54978 c 0,-2.52406 2.05019,-4.57421 4.57422,-4.57421 2.52403,0 4.57421,2.05018 4.57421,4.57421 v 5.91191 z M 190.5221,65.978375 c -2.52406,0 -4.57422,-2.05018 -4.57422,-4.57421 0,-2.52404 2.05019,-4.57422 4.57422,-4.57422 h 3.59107 c 6.43766,0 11.26478,2.28654 14.61959,5.94609 3.71056,4.04846 5.42154,9.62246 5.42154,15.49988 v 26.290955 c 0,6.52176 0.81299,10.52031 2.87973,12.60368 2.03248,2.05018 5.92975,2.79465 12.06128,2.79465 h 8.26693 c 2.52406,0 4.57421,2.05019 4.57421,4.57422 0,2.52403 -2.05018,4.57422 -4.57421,4.57422 h -8.26693 c -8.63932,0 -14.51795,-1.47355 -18.53344,-5.50534 -3.99763,-4.03182 -5.55615,-10.0124 -5.55615,-19.04135 V 83.663065 c -0.0343,-2.60913 -1.11786,-4.96294 -2.82894,-6.67392 -1.74531,-1.74532 -4.16764,-2.82893 -6.84423,-2.82893 -1.2703,0 -2.28654,-1.01625 -2.28654,-2.28654 0,-1.27029 1.01624,-2.28653 2.28654,-2.28653 3.32062,0 6.38685,1.15213 8.80933,3.06652 -0.49158,-1.42272 -1.18641,-2.6765 -2.11756,-3.69271 -1.6768,-1.82923 -4.26929,-2.98137 -7.91118,-2.98137 h -3.59107 z"
       id="path64"
       style="fill:#f16524;fill-opacity:1;stroke-width:0.302508" />
    <g
       aria-label="H T 
M L"
       transform="matrix(0.75,0,0,0.75,-156.82493,-310.40878)"
       id="text1024"
       style="font-weight:600;font-size:96px;font-family:Nunito;-inkscape-font-specification:'Nunito Semi-Bold';white-space:pre;shape-inside:url(#rect1026);stroke:#000000">
      <path
         d="m 285.9088,453.96613 q 2.784,0 4.416,1.728 1.632,1.632 1.632,4.416 v 56.352 q 0,2.784 -1.728,4.512 -1.632,1.728 -4.32,1.728 -2.784,0 -4.416,-1.728 -1.632,-1.728 -1.632,-4.512 v -23.712 h -34.656 v 23.712 q 0,2.784 -1.728,4.512 -1.632,1.728 -4.416,1.728 -2.688,0 -4.416,-1.728 -1.632,-1.728 -1.632,-4.512 v -56.352 q 0,-2.784 1.632,-4.416 1.632,-1.728 4.416,-1.728 2.784,0 4.416,1.728 1.728,1.632 1.728,4.416 v 22.656 h 34.656 v -22.656 q 0,-2.784 1.632,-4.416 1.632,-1.728 4.416,-1.728 z"
         style="font-weight:bold;-inkscape-font-specification:'Nunito Bold'"
         id="path356" />
      <path
         d="m 354.74086,522.60613 q -2.88,0 -4.608,-1.632 -1.632,-1.728 -1.632,-4.512 v -51.84 h -17.472 q -5.76,0 -5.76,-5.088 0,-5.088 5.76,-5.088 h 47.328 q 5.76,0 5.76,5.088 0,5.088 -5.76,5.088 h -17.472 v 51.84 q 0,2.784 -1.728,4.512 -1.632,1.632 -4.416,1.632 z"
         style="font-weight:bold;-inkscape-font-specification:'Nunito Bold'"
         id="path358" />
      <path
         d="m 293.1088,573.96613 q 2.688,0 4.32,1.728 1.632,1.632 1.632,4.416 v 56.832 q 0,2.688 -1.536,4.224 -1.536,1.536 -4.032,1.536 -2.496,0 -3.936,-1.536 -1.44,-1.536 -1.44,-4.224 v -39.552 l -16.32,30.912 q -1.152,2.112 -2.496,3.168 -1.344,0.96 -3.168,0.96 -1.824,0 -3.168,-0.96 -1.344,-0.96 -2.496,-3.168 l -16.416,-30.432 v 39.072 q 0,2.592 -1.536,4.224 -1.44,1.536 -3.936,1.536 -2.496,0 -3.936,-1.536 -1.44,-1.536 -1.44,-4.224 v -56.832 q 0,-2.784 1.536,-4.416 1.632,-1.728 4.32,-1.728 3.744,0 5.856,4.128 l 21.312,40.608 21.216,-40.608 q 2.112,-4.128 5.664,-4.128 z"
         style="font-weight:bold;-inkscape-font-specification:'Nunito Bold'"
         id="path360" />
      <path
         d="m 345.62075,642.12613 q -2.784,0 -4.32,-1.536 -1.536,-1.536 -1.536,-4.224 v -56.256 q 0,-2.784 1.632,-4.416 1.728,-1.728 4.512,-1.728 2.88,0 4.512,1.728 1.728,1.632 1.728,4.416 v 51.84 h 26.976 q 5.76,0 5.76,5.088 0,5.088 -5.76,5.088 z"
         style="font-weight:bold;-inkscape-font-specification:'Nunito Bold'"
         id="path362" />
    </g>
    <text
       xml:space="preserve"
       transform="scale(0.75)"
       id="text1080"
       style="font-style:normal;font-variant:normal;font-weight:600;font-stretch:normal;font-size:64px;font-family:Nunito;-inkscape-font-specification:'Nunito Semi-Bold';white-space:pre;shape-inside:url(#rect1082);fill:#000000;stroke:#000000" />
    <g
       id="g11097"
       transform="translate(0,-0.4303801)">
      <g
         aria-label="H
M "
         transform="scale(0.75)"
         id="text9297"
         style="font-weight:bold;font-size:96px;font-family:Nunito;-inkscape-font-specification:'Nunito Bold';white-space:pre;shape-inside:url(#rect9299);stroke:#000000">
        <path
           d="m 464.54356,39.921206 q 2.784,0 4.416,1.728 1.632,1.632 1.632,4.416 v 56.352004 q 0,2.784 -1.728,4.512 -1.632,1.728 -4.32,1.728 -2.784,0 -4.416,-1.728 -1.632,-1.728 -1.632,-4.512 V 78.705206 h -34.656 v 23.712004 q 0,2.784 -1.728,4.512 -1.632,1.728 -4.416,1.728 -2.688,0 -4.416,-1.728 -1.632,-1.728 -1.632,-4.512 V 46.065206 q 0,-2.784 1.632,-4.416 1.632,-1.728 4.416,-1.728 2.784,0 4.416,1.728 1.728,1.632 1.728,4.416 v 22.656 h 34.656 v -22.656 q 0,-2.784 1.632,-4.416 1.632,-1.728 4.416,-1.728 z"
           id="path365" />
        <path
           d="m 471.74356,159.92121 q 2.688,0 4.32,1.728 1.632,1.632 1.632,4.416 v 56.832 q 0,2.688 -1.536,4.224 -1.536,1.536 -4.032,1.536 -2.496,0 -3.936,-1.536 -1.44,-1.536 -1.44,-4.224 v -39.552 l -16.32,30.912 q -1.152,2.112 -2.496,3.168 -1.344,0.96 -3.168,0.96 -1.824,0 -3.168,-0.96 -1.344,-0.96 -2.496,-3.168 l -16.416,-30.432 v 39.072 q 0,2.592 -1.536,4.224 -1.44,1.536 -3.936,1.536 -2.496,0 -3.936,-1.536 -1.44,-1.536 -1.44,-4.224 v -56.832 q 0,-2.784 1.536,-4.416 1.632,-1.728 4.32,-1.728 3.744,0 5.856,4.128 l 21.312,40.608 21.216,-40.608 q 2.112,-4.128 5.664,-4.128 z"
           id="path367" />
      </g>
      <g
         aria-label="ate
usic"
         transform="matrix(0.75,0,0,0.75,-15.034411,-20.618612)"
         id="text10341"
         style="font-weight:300;font-size:96px;font-family:Nunito;-inkscape-font-specification:'Nunito Light';white-space:pre;shape-inside:url(#rect10343);stroke:#000000">
        <path
           d="m 537.09052,82.525456 q 8.448,0 12.576,4.416 4.224,4.416 4.224,13.344004 v 27.36 q 0,1.344 -0.768,2.208 -0.768,0.768 -2.112,0.768 -1.344,0 -2.112,-0.768 -0.768,-0.864 -0.768,-2.208 v -5.76 q -2.016,4.32 -5.856,6.72 -3.84,2.304 -8.832,2.304 -4.512,0 -8.256,-1.824 -3.744,-1.824 -5.952,-5.088 -2.112,-3.264 -2.112,-7.2 0,-5.184 2.688,-8.064 2.688,-2.88 8.928,-4.128 6.24,-1.248 17.376,-1.248 h 2.016 v -3.552004 q 0,-6.336 -2.592,-9.216 -2.592,-2.976 -8.16,-2.976 -7.104,0 -13.536,3.744 -0.288,0.192 -1.536,1.056 -1.152,0.768 -2.016,0.768 -0.96,0 -1.632,-0.672 -0.576,-0.768 -0.576,-1.824 0,-2.112 3.36,-4.128 3.36,-1.92 7.488,-2.976 4.128,-1.056 8.16,-1.056 z m -3.168,43.296004 q 6.24,0 10.176,-4.224 4.032,-4.224 4.032,-10.752 v -3.168 h -1.824 q -9.216,0 -14.112,0.768 -4.896,0.768 -6.912,2.688 -2.016,1.824 -2.016,5.376 0,4.032 3.072,6.72 3.072,2.592 7.584,2.592 z"
           id="path370" />
        <path
           d="m 589.41043,125.82146 q 2.688,0.288 2.688,2.496 0,1.152 -0.864,1.824 -0.864,0.672 -2.784,0.576 l -2.688,-0.192 q -7.296,-0.48 -10.848,-4.416 -3.456,-4.032 -3.456,-12.192 V 88.381456 h -7.296 q -1.152,0 -1.824,-0.576 -0.672,-0.672 -0.672,-1.728 0,-1.056 0.672,-1.728 0.672,-0.672 1.824,-0.672 h 7.296 v -11.904 q 0,-1.44 0.768,-2.208 0.768,-0.768 2.112,-0.768 1.344,0 2.112,0.768 0.864,0.768 0.864,2.208 v 11.904 h 11.616 q 1.248,0 1.92,0.672 0.672,0.672 0.672,1.728 0,1.056 -0.672,1.728 -0.672,0.576 -1.92,0.576 h -11.616 v 25.824004 q 0,5.952 2.304,8.544 2.304,2.496 7.2,2.88 z"
           id="path372" />
        <path
           d="m 636.25839,120.25346 q 0.864,0 1.44,0.768 0.672,0.672 0.672,1.632 0,2.112 -3.264,4.128 -6.912,4.128 -14.592,4.128 -10.656,0 -16.8,-6.432 -6.144,-6.432 -6.144,-17.664 0,-7.200004 2.688,-12.672004 2.784,-5.568 7.68,-8.544 4.992,-3.072 11.424,-3.072 9.024,0 14.208,5.856 5.28,5.76 5.28,15.936004 0,1.728 -0.768,2.592 -0.768,0.768 -2.496,0.768 h -31.968 q 0.288,8.832 4.608,13.44 4.32,4.608 12.192,4.608 4.128,0 6.912,-1.056 2.784,-1.152 5.952,-2.976 2.112,-1.44 2.976,-1.44 z m -16.896,-32.928004 q -6.72,0 -10.752,4.224 -4.032,4.224 -4.8,11.808004 h 29.664 q -0.192,-7.680004 -3.84,-11.808004 -3.648,-4.224 -10.272,-4.224 z"
           id="path374" />
        <path
           d="m 553.41052,202.71746 q 1.344,0 2.112,0.864 0.864,0.768 0.864,2.112 v 42.048 q 0,1.344 -0.864,2.208 -0.768,0.768 -2.112,0.768 -1.248,0 -2.016,-0.768 -0.768,-0.864 -0.768,-2.208 v -5.856 q -2.208,4.416 -6.336,6.72 -4.032,2.304 -9.216,2.304 -8.256,0 -12.48,-4.512 -4.128,-4.608 -4.128,-13.536 v -27.168 q 0,-1.344 0.768,-2.112 0.864,-0.864 2.208,-0.864 1.344,0 2.112,0.864 0.768,0.768 0.768,2.112 v 26.784 q 0,6.816 2.688,10.08 2.784,3.168 8.64,3.168 6.72,0 10.752,-4.224 4.128,-4.32 4.128,-11.424 v -24.384 q 0,-1.344 0.768,-2.112 0.768,-0.864 2.112,-0.864 z"
           id="path376" />
        <path
           d="m 586.81847,250.90946 q -4.032,0 -7.968,-1.056 -3.84,-1.152 -6.816,-3.072 -1.824,-1.248 -2.592,-2.112 -0.672,-0.96 -0.672,-2.112 0,-0.96 0.576,-1.632 0.672,-0.672 1.536,-0.672 0.864,0 2.976,1.44 2.784,1.824 5.664,2.976 2.976,1.152 7.392,1.152 5.664,0 8.832,-2.016 3.168,-2.112 3.168,-5.952 0,-2.304 -1.152,-3.744 -1.152,-1.536 -3.84,-2.592 -2.688,-1.152 -7.68,-2.208 -8.544,-1.92 -12.192,-4.896 -3.552,-3.072 -3.552,-8.16 0,-6.144 4.8,-9.888 4.8,-3.84 12.48,-3.84 3.744,0 7.104,0.96 3.456,0.96 5.952,2.784 3.36,2.304 3.36,4.512 0,0.96 -0.672,1.728 -0.576,0.672 -1.44,0.672 -0.96,0 -2.976,-1.536 -2.592,-1.824 -5.184,-2.88 -2.496,-1.152 -6.432,-1.152 -4.992,0 -7.968,2.304 -2.976,2.208 -2.976,6.048 0,2.208 0.96,3.648 1.056,1.44 3.456,2.592 2.496,1.056 7.104,2.112 6.624,1.536 10.176,3.264 3.552,1.728 5.088,4.128 1.536,2.4 1.536,6.144 0,5.856 -4.992,9.504 -4.896,3.552 -13.056,3.552 z"
           id="path378" />
        <path
           d="m 620.61053,250.71746 q -1.344,0 -2.208,-0.768 -0.768,-0.768 -0.768,-2.208 v -42.048 q 0,-1.44 0.768,-2.208 0.864,-0.768 2.208,-0.768 1.344,0 2.112,0.768 0.768,0.768 0.768,2.208 v 42.048 q 0,1.44 -0.768,2.208 -0.768,0.768 -2.112,0.768 z m 0,-58.848 q -1.92,0 -3.168,-1.152 -1.152,-1.152 -1.152,-2.976 0,-1.92 1.152,-3.072 1.248,-1.152 3.168,-1.152 1.92,0 3.072,1.152 1.248,1.152 1.248,3.072 0,1.824 -1.248,2.976 -1.152,1.152 -3.072,1.152 z"
           id="path380" />
        <path
           d="m 657.57054,250.90946 q -6.432,0 -11.328,-2.976 -4.896,-2.976 -7.584,-8.448 -2.688,-5.472 -2.688,-12.576 0,-7.2 2.688,-12.672 2.784,-5.568 7.68,-8.64 4.992,-3.072 11.424,-3.072 3.648,0 7.104,0.96 3.456,0.96 6.144,2.88 1.728,1.248 2.4,2.304 0.768,0.96 0.768,2.112 0,1.056 -0.576,1.728 -0.576,0.672 -1.44,0.672 -0.96,0 -3.072,-1.632 -2.496,-1.824 -4.992,-2.88 -2.496,-1.056 -6.048,-1.056 -7.488,0 -11.712,5.184 -4.224,5.088 -4.224,14.112 0,8.928 4.128,13.92 4.224,4.896 11.712,4.896 3.648,0 6.048,-1.056 2.496,-1.056 5.376,-2.88 0.864,-0.576 1.632,-1.056 0.864,-0.48 1.344,-0.48 0.96,0 1.536,0.672 0.576,0.672 0.576,1.632 0,1.152 -0.672,2.016 -0.672,0.864 -2.592,2.208 -2.592,1.92 -6.336,3.072 -3.648,1.056 -7.296,1.056 z"
           id="path382" />
      </g>
      <g
         aria-label="T
L"
         transform="matrix(0.75,0,0,0.75,-17.402634,-21.131484)"
         id="text10347"
         style="font-weight:bold;font-size:96px;font-family:Nunito;-inkscape-font-specification:'Nunito Bold';white-space:pre;shape-inside:url(#rect10349);stroke:#000000">
        <path
           d="m 719.08528,136.25652 q -2.88,0 -4.608,-1.632 -1.632,-1.728 -1.632,-4.512 V 78.272519 h -17.472 q -5.76,0 -5.76,-5.088 0,-5.088 5.76,-5.088 h 47.328 q 5.76,0 5.76,5.088 0,5.088 -5.76,5.088 h -17.472 v 51.840001 q 0,2.784 -1.728,4.512 -1.632,1.632 -4.416,1.632 z"
           id="path385" />
        <path
           d="m 702.76528,255.77652 q -2.784,0 -4.32,-1.536 -1.536,-1.536 -1.536,-4.224 v -56.256 q 0,-2.784 1.632,-4.416 1.728,-1.728 4.512,-1.728 2.88,0 4.512,1.728 1.728,1.632 1.728,4.416 v 51.84 h 26.976 q 5.76,0 5.76,5.088 0,5.088 -5.76,5.088 z"
           id="path387" />
      </g>
      <g
         aria-label="he
essons"
         transform="matrix(0.75,0,0,0.75,-47.774481,-48.812987)"
         id="text10353"
         style="font-weight:300;font-size:96px;font-family:Nunito;-inkscape-font-specification:'Nunito Light';white-space:pre;shape-inside:url(#rect10355);stroke:#000000">
        <path
           d="m 825.71419,126.83796 q 16.8,0 16.8,18.048 v 27.168 q 0,1.344 -0.768,2.208 -0.768,0.768 -2.112,0.768 -1.344,0 -2.208,-0.768 -0.768,-0.864 -0.768,-2.208 v -26.784 q 0,-6.912 -2.784,-10.08 -2.784,-3.168 -8.832,-3.168 -6.912,0 -11.136,4.224 -4.128,4.224 -4.128,11.328 v 24.48 q 0,1.344 -0.768,2.208 -0.768,0.768 -2.112,0.768 -1.344,0 -2.208,-0.768 -0.768,-0.864 -0.768,-2.208 v -62.688 q 0,-1.344 0.768,-2.112 0.864,-0.864 2.208,-0.864 1.344,0 2.112,0.864 0.768,0.768 0.768,2.112 v 26.4 q 2.208,-4.32 6.336,-6.624 4.224,-2.304 9.6,-2.304 z"
           id="path390" />
        <path
           d="m 893.49027,164.56596 q 0.864,0 1.44,0.768 0.672,0.672 0.672,1.632 0,2.112 -3.264,4.128 -6.912,4.128 -14.592,4.128 -10.656,0 -16.8,-6.432 -6.144,-6.432 -6.144,-17.664 0,-7.2 2.688,-12.672 2.784,-5.568 7.68,-8.544 4.992,-3.072 11.424,-3.072 9.024,0 14.208,5.856 5.28,5.76 5.28,15.936 0,1.728 -0.768,2.592 -0.768,0.768 -2.496,0.768 h -31.968 q 0.288,8.832 4.608,13.44 4.32,4.608 12.192,4.608 4.128,0 6.912,-1.056 2.784,-1.152 5.952,-2.976 2.112,-1.44 2.976,-1.44 z m -16.896,-32.928 q -6.72,0 -10.752,4.224 -4.032,4.224 -4.8,11.808 h 29.664 q -0.192,-7.68 -3.84,-11.808 -3.648,-4.224 -10.272,-4.224 z"
           id="path392" />
        <path
           d="m 839.63419,284.56596 q 0.864,0 1.44,0.768 0.672,0.672 0.672,1.632 0,2.112 -3.264,4.128 -6.912,4.128 -14.592,4.128 -10.656,0 -16.8,-6.432 -6.144,-6.432 -6.144,-17.664 0,-7.2 2.688,-12.672 2.784,-5.568 7.68,-8.544 4.992,-3.072 11.424,-3.072 9.024,0 14.208,5.856 5.28,5.76 5.28,15.936 0,1.728 -0.768,2.592 -0.768,0.768 -2.496,0.768 h -31.968 q 0.288,8.832 4.608,13.44 4.32,4.608 12.192,4.608 4.128,0 6.912,-1.056 2.784,-1.152 5.952,-2.976 2.112,-1.44 2.976,-1.44 z m -16.896,-32.928 q -6.72,0 -10.752,4.224 -4.032,4.224 -4.8,11.808 h 29.664 q -0.192,-7.68 -3.84,-11.808 -3.648,-4.224 -10.272,-4.224 z"
           id="path394" />
        <path
           d="m 869.4901,295.22196 q -4.032,0 -7.968,-1.056 -3.84,-1.152 -6.816,-3.072 -1.824,-1.248 -2.592,-2.112 -0.672,-0.96 -0.672,-2.112 0,-0.96 0.576,-1.632 0.672,-0.672 1.536,-0.672 0.864,0 2.976,1.44 2.784,1.824 5.664,2.976 2.976,1.152 7.392,1.152 5.664,0 8.832,-2.016 3.168,-2.112 3.168,-5.952 0,-2.304 -1.152,-3.744 -1.152,-1.536 -3.84,-2.592 -2.688,-1.152 -7.68,-2.208 -8.544,-1.92 -12.192,-4.896 -3.552,-3.072 -3.552,-8.16 0,-6.144 4.8,-9.888 4.8,-3.84 12.48,-3.84 3.744,0 7.104,0.96 3.456,0.96 5.952,2.784 3.36,2.304 3.36,4.512 0,0.96 -0.672,1.728 -0.576,0.672 -1.44,0.672 -0.96,0 -2.976,-1.536 -2.592,-1.824 -5.184,-2.88 -2.496,-1.152 -6.432,-1.152 -4.992,0 -7.968,2.304 -2.976,2.208 -2.976,6.048 0,2.208 0.96,3.648 1.056,1.44 3.456,2.592 2.496,1.056 7.104,2.112 6.624,1.536 10.176,3.264 3.552,1.728 5.088,4.128 1.536,2.4 1.536,6.144 0,5.856 -4.992,9.504 -4.896,3.552 -13.056,3.552 z"
           id="path396" />
        <path
           d="m 915.37816,295.22196 q -4.032,0 -7.968,-1.056 -3.84,-1.152 -6.816,-3.072 -1.824,-1.248 -2.592,-2.112 -0.672,-0.96 -0.672,-2.112 0,-0.96 0.576,-1.632 0.672,-0.672 1.536,-0.672 0.864,0 2.976,1.44 2.784,1.824 5.664,2.976 2.976,1.152 7.392,1.152 5.664,0 8.832,-2.016 3.168,-2.112 3.168,-5.952 0,-2.304 -1.152,-3.744 -1.152,-1.536 -3.84,-2.592 -2.688,-1.152 -7.68,-2.208 -8.544,-1.92 -12.192,-4.896 -3.552,-3.072 -3.552,-8.16 0,-6.144 4.8,-9.888 4.8,-3.84 12.48,-3.84 3.744,0 7.104,0.96 3.456,0.96 5.952,2.784 3.36,2.304 3.36,4.512 0,0.96 -0.672,1.728 -0.576,0.672 -1.44,0.672 -0.96,0 -2.976,-1.536 -2.592,-1.824 -5.184,-2.88 -2.496,-1.152 -6.432,-1.152 -4.992,0 -7.968,2.304 -2.976,2.208 -2.976,6.048 0,2.208 0.96,3.648 1.056,1.44 3.456,2.592 2.496,1.056 7.104,2.112 6.624,1.536 10.176,3.264 3.552,1.728 5.088,4.128 1.536,2.4 1.536,6.144 0,5.856 -4.992,9.504 -4.896,3.552 -13.056,3.552 z"
           id="path398" />
        <path
           d="m 964.72222,295.22196 q -6.432,0 -11.328,-2.976 -4.8,-2.976 -7.488,-8.448 -2.688,-5.472 -2.688,-12.768 0,-7.296 2.688,-12.768 2.688,-5.472 7.488,-8.448 4.896,-2.976 11.328,-2.976 6.336,0 11.232,2.976 4.896,2.976 7.488,8.448 2.688,5.472 2.688,12.768 0,7.296 -2.688,12.768 -2.592,5.472 -7.488,8.448 -4.896,2.976 -11.232,2.976 z m -0.096,-5.184 q 7.392,0 11.424,-4.896 4.032,-4.896 4.032,-14.112 0,-9.024 -4.128,-14.016 -4.032,-5.088 -11.232,-5.088 -7.296,0 -11.328,5.088 -4.032,4.992 -4.032,14.016 0,9.216 3.936,14.112 3.936,4.896 11.328,4.896 z"
           id="path400" />
        <path
           d="m 1020.3062,246.83796 q 16.8,0 16.8,18.048 v 27.168 q 0,1.344 -0.768,2.208 -0.768,0.768 -2.112,0.768 -1.344,0 -2.208,-0.768 -0.768,-0.864 -0.768,-2.208 v -26.784 q 0,-6.912 -2.784,-10.08 -2.784,-3.168 -8.832,-3.168 -6.912,0 -11.136,4.224 -4.128,4.224 -4.128,11.328 v 24.48 q 0,1.344 -0.768,2.208 -0.768,0.768 -2.112,0.768 -1.344,0 -2.20797,-0.768 -0.768,-0.864 -0.768,-2.208 v -42.048 q 0,-1.344 0.768,-2.112 0.86397,-0.864 2.20797,-0.864 1.248,0 2.016,0.768 0.768,0.768 0.768,2.112 v 6.048 q 2.208,-4.416 6.336,-6.72 4.224,-2.4 9.696,-2.4 z"
           id="path402" />
        <path
           d="m 1067.4423,295.22196 q -4.032,0 -7.968,-1.056 -3.84,-1.152 -6.816,-3.072 -1.824,-1.248 -2.592,-2.112 -0.672,-0.96 -0.672,-2.112 0,-0.96 0.576,-1.632 0.672,-0.672 1.536,-0.672 0.864,0 2.976,1.44 2.784,1.824 5.664,2.976 2.976,1.152 7.392,1.152 5.664,0 8.832,-2.016 3.168,-2.112 3.168,-5.952 0,-2.304 -1.152,-3.744 -1.152,-1.536 -3.84,-2.592 -2.688,-1.152 -7.68,-2.208 -8.544,-1.92 -12.192,-4.896 -3.552,-3.072 -3.552,-8.16 0,-6.144 4.8,-9.888 4.8,-3.84 12.48,-3.84 3.744,0 7.104,0.96 3.456,0.96 5.952,2.784 3.36,2.304 3.36,4.512 0,0.96 -0.672,1.728 -0.576,0.672 -1.44,0.672 -0.96,0 -2.976,-1.536 -2.592,-1.824 -5.184,-2.88 -2.496,-1.152 -6.432,-1.152 -4.992,0 -7.968,2.304 -2.976,2.208 -2.976,6.048 0,2.208 0.96,3.648 1.056,1.44 3.456,2.592 2.496,1.056 7.104,2.112 6.624,1.536 10.176,3.264 3.552,1.728 5.088,4.128 1.536,2.4 1.536,6.144 0,5.856 -4.992,9.504 -4.896,3.552 -13.056,3.552 z"
           id="path404" />
      </g>
    </g>
  </g>
</svg>
